<svg width="177" height="99" viewBox="0 0 177 99" fill="none" xmlns="http://www.w3.org/2000/svg">
<path d="M100.257 0L87.9338 21.1956L85.25 16.3656L83.8629 17.776L82.1276 19.7103L88.2422 30.1293L102.875 4.5586H111.194L88.63 43.3433L77.7715 24.5653L74.5303 28.1778L85.4774 47.0214H91.7825L119.05 0H100.257Z" fill="#0B1C3E"/>
<path d="M88.7614 0.676254H80.8219H58.1582L67.5407 16.8248L73.228 26.6149L76.5046 23.0497L72.9049 16.8248L66.3018 5.40458L83.7659 5.17368L86.1344 5.1418L88.9656 9.49017L91.9345 6.26013L88.7614 0.676254Z" fill="#E92627"/>
<path d="M78.456 20.889L78.4681 20.9114L78.6964 20.6788L78.6766 20.6486L78.456 20.889Z" fill="#DDE0E7"/>
<mask id="mask0_64_3690" style="mask-type:alpha" maskUnits="userSpaceOnUse" x="0" y="0" width="177" height="99">
<rect y="8.39233e-05" width="176.125" height="98.5393" fill="#D9D9D9"/>
</mask>
<g mask="url(#mask0_64_3690)">
<path d="M8.55631 81.1407C7.70421 79.3435 6.86504 77.479 6.0362 75.5465C5.20737 73.614 4.42075 71.7013 3.67548 69.8101C2.93022 67.9181 2.24441 66.1071 1.61976 64.377C0.994259 62.6479 0.454051 61.1039 0 59.7461H5.30989C5.71053 60.9841 6.1551 62.3187 6.64533 63.7472C7.13557 65.1749 7.63529 66.5982 8.14361 68.0172C8.65195 69.4353 9.1396 70.7941 9.60571 72.0933C10.0718 73.3934 10.5173 74.5152 10.9437 75.4604C11.3461 74.5212 11.7855 73.4029 12.2619 72.1028C12.7384 70.8035 13.2312 69.4448 13.7404 68.0258C14.2479 66.6085 14.7476 65.1843 15.237 63.7558C15.7272 62.3282 16.1735 60.991 16.5759 59.7461H21.7031C21.2241 61.1108 20.6727 62.6565 20.0489 64.3822C19.4251 66.1088 18.7427 67.9181 18.0018 69.8127C17.2608 71.7056 16.4794 73.62 15.6566 75.5551C14.8338 77.4902 13.9972 79.3521 13.1494 81.1407H8.55631Z" fill="#E92627"/>
<path d="M20.6839 73.1453C20.6839 71.7047 20.9053 70.4434 21.3481 69.363C21.791 68.2826 22.3717 67.3822 23.092 66.6619C23.8122 65.9417 24.6411 65.3963 25.5776 65.0249C26.5141 64.6545 27.4765 64.4701 28.4639 64.4701C30.7695 64.4701 32.5908 65.1749 33.9289 66.5844C35.266 67.9939 35.9355 70.0686 35.9355 72.805C35.9355 73.0729 35.9243 73.3667 35.9045 73.6855C35.8838 74.0043 35.8631 74.2869 35.8424 74.5342H25.4079C25.5113 75.481 25.9533 76.2323 26.7356 76.788C27.5179 77.3438 28.5673 77.6212 29.8846 77.6212C30.7281 77.6212 31.5561 77.5436 32.3694 77.3903C33.1827 77.2352 33.8461 77.0448 34.3614 76.8191L34.9783 80.5548C34.7318 80.678 34.4019 80.8013 33.99 80.9245C33.5782 81.0485 33.1207 81.1562 32.6167 81.2484C32.1118 81.3423 31.5716 81.419 30.9961 81.481C30.4197 81.5422 29.8433 81.5732 29.2669 81.5732C27.8056 81.5732 26.5348 81.357 25.4544 80.9245C24.374 80.492 23.4788 79.9018 22.768 79.1496C22.0581 78.3992 21.5334 77.5083 21.1939 76.4787C20.8544 75.4509 20.6839 74.3394 20.6839 73.1453ZM31.4897 71.3851C31.4691 70.9948 31.4019 70.6131 31.289 70.2435C31.1761 69.8722 31.0004 69.543 30.7643 69.2544C30.5274 68.9666 30.2292 68.7306 29.8691 68.5445C29.509 68.3592 29.061 68.2671 28.5259 68.2671C28.0116 68.2671 27.5687 68.3549 27.1991 68.5298C26.8278 68.7047 26.5193 68.9356 26.272 69.2243C26.0256 69.512 25.8352 69.8472 25.7008 70.2271C25.5673 70.6088 25.4699 70.9948 25.4079 71.3851H31.4897Z" fill="#E92627"/>
<path d="M48.2844 68.977C47.8726 68.8745 47.3893 68.7668 46.8336 68.653C46.2778 68.5402 45.6808 68.4833 45.0432 68.4833C44.7546 68.4833 44.4099 68.5092 44.0084 68.5608C43.6069 68.6117 43.3037 68.6685 43.0978 68.7306V81.1407H38.4978V65.7659C39.3206 65.4781 40.2933 65.2059 41.4151 64.9483C42.5369 64.6907 43.787 64.5623 45.1664 64.5623C45.4128 64.5623 45.7118 64.5778 46.0616 64.6088C46.4114 64.6398 46.7612 64.6812 47.111 64.732C47.4608 64.7837 47.8106 64.8457 48.1612 64.9172C48.511 64.9896 48.8091 65.0775 49.0564 65.18L48.2844 68.977Z" fill="#E92627"/>
<path d="M55.5708 60.2087C55.5708 61.0539 55.2977 61.7174 54.7523 62.2007C54.2069 62.684 53.5633 62.9261 52.8224 62.9261C52.0814 62.9261 51.4387 62.684 50.8933 62.2007C50.3479 61.7174 50.0748 61.0539 50.0748 60.2087C50.0748 59.3661 50.3479 58.7018 50.8933 58.2185C51.4387 57.7343 52.0814 57.4922 52.8224 57.4922C53.5633 57.4922 54.2069 57.7343 54.7523 58.2185C55.2977 58.7018 55.5708 59.3661 55.5708 60.2087ZM55.1383 81.1407H50.5383V64.9017H55.1383V81.1407Z" fill="#E92627"/>
<path d="M65.5108 57.1846C66.375 57.1846 67.1667 57.2725 67.8879 57.4465C68.6082 57.6223 69.1639 57.7911 69.555 57.9566L68.6599 61.6295C68.248 61.4442 67.8 61.3055 67.3167 61.2133C66.8333 61.1203 66.3853 61.0746 65.9743 61.0746C65.4186 61.0746 64.9499 61.1513 64.5691 61.3055C64.1883 61.4597 63.8902 61.6717 63.6739 61.9388C63.4577 62.2059 63.3034 62.5247 63.2112 62.896C63.1182 63.2665 63.0717 63.6671 63.0717 64.0996V64.9026H68.752V68.7306H63.0717V81.1416H58.4717V64.0376C58.4717 61.9388 59.0636 60.2716 60.2474 59.0361C61.4304 57.8015 63.1845 57.1846 65.5108 57.1846Z" fill="#E92627"/>
<path d="M85.794 64.9026C84.8652 68.031 83.896 70.9638 82.8853 73.701C81.8738 76.4391 80.7693 79.0936 79.5726 81.6663C79.1392 82.5925 78.7067 83.3791 78.2742 84.0279C77.8417 84.6758 77.3669 85.2108 76.8517 85.6338C76.3365 86.0551 75.7541 86.3636 75.1053 86.56C74.4557 86.7547 73.6983 86.853 72.8333 86.853C72.1113 86.853 71.4462 86.7849 70.8388 86.6522C70.2305 86.5178 69.7308 86.3688 69.3388 86.2051L70.1418 82.5304C70.6156 82.695 71.0378 82.8079 71.4083 82.8699C71.7787 82.9319 72.1699 82.963 72.5826 82.963C73.4054 82.963 74.0387 82.7415 74.4815 82.2987C74.9244 81.8567 75.3 81.2441 75.6093 80.4627C74.5582 78.4044 73.5079 76.0936 72.4577 73.5313C71.4083 70.969 70.4192 68.093 69.4939 64.9026H74.3712C74.5771 65.7056 74.821 66.5741 75.1001 67.5106C75.3793 68.448 75.6739 69.394 75.9841 70.3512C76.2934 71.3084 76.6087 72.2398 76.9293 73.1453C77.2498 74.0508 77.5548 74.8736 77.8442 75.6154C78.1122 74.8736 78.3922 74.0508 78.6817 73.1453C78.9712 72.2398 79.2546 71.3084 79.5338 70.3512C79.813 69.394 80.0818 68.448 80.3394 67.5106C80.5978 66.5741 80.8305 65.7056 81.0372 64.9026H85.794Z" fill="#E92627"/>
<path d="M104.409 63.4508C102.166 63.4508 100.545 64.0738 99.5465 65.3187C98.5479 66.5637 98.0499 68.2671 98.0499 70.4287C98.0499 71.4773 98.1731 72.4302 98.4195 73.284C98.6668 74.1378 99.0373 74.8736 99.531 75.4914C100.025 76.1083 100.642 76.5873 101.383 76.9268C102.125 77.2662 102.989 77.4359 103.978 77.4359C104.512 77.4359 104.969 77.4265 105.351 77.4049C105.732 77.3851 106.066 77.3438 106.354 77.2817V69.842H111.17V80.4308C110.594 80.6582 109.668 80.8995 108.392 81.1562C107.115 81.4138 105.54 81.5422 103.668 81.5422C102.063 81.5422 100.606 81.2949 99.3 80.8013C97.9922 80.3067 96.8764 79.5873 95.9502 78.6404C95.0241 77.6936 94.3081 76.5313 93.8041 75.1519C93.3 73.7725 93.0476 72.1984 93.0476 70.4287C93.0476 68.6375 93.3259 67.0531 93.8816 65.6737C94.4373 64.2943 95.199 63.1269 96.1665 62.1697C97.1332 61.2125 98.2705 60.4879 99.5775 59.9933C100.884 59.4988 102.279 59.2524 103.761 59.2524C104.768 59.2524 105.68 59.3196 106.493 59.4523C107.306 59.5875 108.005 59.7409 108.592 59.9158C109.179 60.0916 109.662 60.2716 110.044 60.456C110.424 60.6412 110.696 60.786 110.862 60.8885L109.472 64.7475C108.814 64.3986 108.057 64.0944 107.203 63.8368C106.349 63.5792 105.417 63.4508 104.409 63.4508Z" fill="#E92627"/>
<path d="M124.137 68.977C123.725 68.8745 123.242 68.7668 122.686 68.653C122.13 68.5402 121.533 68.4833 120.895 68.4833C120.607 68.4833 120.262 68.5092 119.861 68.5608C119.459 68.6117 119.156 68.6685 118.95 68.7306V81.1407H114.35V65.7659C115.173 65.4781 116.146 65.2059 117.267 64.9483C118.389 64.6907 119.639 64.5623 121.019 64.5623C121.265 64.5623 121.564 64.5778 121.914 64.6088C122.264 64.6398 122.613 64.6812 122.963 64.732C123.313 64.7837 123.663 64.8457 124.014 64.9172C124.363 64.9896 124.661 65.0775 124.909 65.18L124.137 68.977Z" fill="#E92627"/>
<path d="M141.27 72.9902C141.27 74.2662 141.086 75.4345 140.716 76.4942C140.345 77.5548 139.809 78.4604 139.11 79.2116C138.41 79.9629 137.57 80.5445 136.594 80.9555C135.615 81.3673 134.52 81.5732 133.306 81.5732C132.111 81.5732 131.026 81.3673 130.049 80.9555C129.072 80.5445 128.233 79.9629 127.533 79.2116C126.833 78.4604 126.287 77.5548 125.897 76.4942C125.505 75.4345 125.31 74.2662 125.31 72.9902C125.31 71.7151 125.511 70.5511 125.912 69.5017C126.313 68.4514 126.868 67.5562 127.58 66.8162C128.289 66.0752 129.133 65.4988 130.11 65.087C131.087 64.676 132.153 64.4692 133.306 64.4692C134.479 64.4692 135.554 64.676 136.531 65.087C137.509 65.4988 138.348 66.0752 139.049 66.8162C139.747 67.5562 140.293 68.4514 140.685 69.5017C141.074 70.5511 141.27 71.7151 141.27 72.9902ZM136.578 72.9902C136.578 71.5703 136.295 70.4546 135.729 69.6404C135.162 68.8279 134.355 68.4213 133.306 68.4213C132.256 68.4213 131.443 68.8279 130.867 69.6404C130.29 70.4546 130.002 71.5703 130.002 72.9902C130.002 74.4101 130.29 75.537 130.867 76.371C131.443 77.205 132.256 77.6212 133.306 77.6212C134.355 77.6212 135.162 77.205 135.729 76.371C136.295 75.537 136.578 74.4101 136.578 72.9902Z" fill="#E92627"/>
<path d="M157.695 80.5859C156.913 80.8125 155.905 81.0235 154.669 81.2183C153.435 81.4138 152.138 81.5112 150.78 81.5112C149.401 81.5112 148.253 81.326 147.337 80.9563C146.421 80.5859 145.696 80.0655 145.161 79.3969C144.626 78.7283 144.245 77.9305 144.018 77.0043C143.792 76.0781 143.679 75.0597 143.679 73.9483V64.9026H148.279V73.3917C148.279 74.8736 148.475 75.9446 148.866 76.6028C149.257 77.2619 149.987 77.5902 151.058 77.5902C151.387 77.5902 151.736 77.5755 152.107 77.5445C152.477 77.5143 152.807 77.4782 153.095 77.4368V64.9026H157.695V80.5859Z" fill="#E92627"/>
<path d="M176.125 73.0212C176.125 74.2765 175.971 75.4199 175.662 76.4486C175.354 77.4773 174.901 78.363 174.305 79.1031C173.707 79.844 172.966 80.4204 172.081 80.8323C171.196 81.2432 170.177 81.45 169.025 81.45C168.386 81.45 167.789 81.388 167.234 81.2648C166.678 81.1407 166.143 80.9658 165.629 80.7392V86.8521H161.029V65.4575C161.44 65.3342 161.913 65.2162 162.449 65.1025C162.983 64.9896 163.545 64.8923 164.131 64.8095C164.718 64.7268 165.315 64.6596 165.922 64.6088C166.529 64.5571 167.11 64.5313 167.666 64.5313C169.004 64.5313 170.197 64.732 171.248 65.1335C172.297 65.535 173.182 66.1011 173.903 66.8317C174.623 67.5631 175.173 68.4523 175.555 69.5017C175.935 70.5511 176.125 71.7254 176.125 73.0212ZM171.433 73.1453C171.433 71.7254 171.113 70.5873 170.476 69.7335C169.837 68.8796 168.89 68.4523 167.635 68.4523C167.223 68.4523 166.842 68.4678 166.494 68.4979C166.143 68.5298 165.855 68.566 165.629 68.6065V76.9112C165.917 77.0965 166.293 77.2516 166.755 77.3748C167.219 77.498 167.687 77.56 168.161 77.56C170.341 77.56 171.433 76.0884 171.433 73.1453Z" fill="#E92627"/>
<path d="M50.8993 97.527H49.8456V95.9495L48.275 92.7737H49.37L50.1627 94.5167C50.2445 94.7028 50.2928 94.9233 50.341 95.1163H50.4099C50.4513 94.9233 50.5064 94.7028 50.5823 94.5167L51.3749 92.7737H52.4562L50.8993 95.9495V97.527Z" fill="#0B1C3E"/>
<path d="M55.8947 95.8323C55.8947 97.1341 55.42 97.6166 54.1526 97.6166C52.8784 97.6166 52.4028 97.1341 52.4028 95.8323C52.4028 94.5227 52.8784 94.0342 54.1526 94.0342C55.42 94.0342 55.8947 94.5227 55.8947 95.8323ZM53.4703 95.8323C53.4703 96.6448 53.615 96.8515 54.1526 96.8515C54.6756 96.8515 54.8272 96.6448 54.8272 95.8323C54.8272 95.0061 54.6756 94.7993 54.1526 94.7993C53.615 94.7993 53.4703 95.0061 53.4703 95.8323Z" fill="#0B1C3E"/>
<path d="M59.9829 97.527H59.1773L59.1015 97.0583C58.6328 97.4374 58.1857 97.6166 57.6963 97.6166C57.0622 97.6166 56.7382 97.2996 56.7382 96.6732V94.1307H57.7575V96.363C57.7514 96.6594 57.8471 96.7619 58.1228 96.7619C58.3709 96.7619 58.6122 96.6732 58.9706 96.4802V94.1307H59.9829V97.527Z" fill="#0B1C3E"/>
<path d="M63.3267 94.9776H63.051C62.7546 94.9776 62.472 95.0534 62.0111 95.212V97.5262H60.9918V94.1307H61.7836L61.8732 94.633C62.3281 94.2479 62.8097 94.0342 63.2509 94.0342H63.4301L63.3267 94.9776Z" fill="#0B1C3E"/>
<path d="M68.9433 92.8495L68.8537 93.6353C68.4057 93.6077 68.117 93.6008 67.5174 93.6008C66.8273 93.6008 66.6222 93.9515 66.6222 95.1508C66.6222 96.3493 66.8273 96.7008 67.5174 96.7008C68.1515 96.7008 68.5306 96.6939 68.9502 96.6387L69.0398 97.4167C68.5978 97.5546 68.1998 97.6097 67.5174 97.6097C66.0493 97.6097 65.5194 96.9618 65.5194 95.1508C65.5194 93.3389 66.0493 92.691 67.5174 92.691C68.186 92.691 68.5091 92.7393 68.9433 92.8495Z" fill="#0B1C3E"/>
<path d="M73.1676 95.8323C73.1676 97.1341 72.6929 97.6166 71.4255 97.6166C70.1512 97.6166 69.6756 97.1341 69.6756 95.8323C69.6756 94.5227 70.1512 94.0342 71.4255 94.0342C72.6929 94.0342 73.1676 94.5227 73.1676 95.8323ZM70.7431 95.8323C70.7431 96.6448 70.8879 96.8515 71.4255 96.8515C71.9485 96.8515 72.1001 96.6448 72.1001 95.8323C72.1001 95.0061 71.9485 94.7993 71.4255 94.7993C70.8879 94.7993 70.7431 95.0061 70.7431 95.8323Z" fill="#0B1C3E"/>
<path d="M77.3385 94.9776V97.5262H76.3261V95.2947C76.3261 94.9845 76.2434 94.8949 75.9953 94.8949C75.7127 94.8949 75.4508 94.9983 75.0441 95.2051L75.051 97.5262H74.0318V94.1307H74.8589L74.9338 94.633C75.4025 94.2479 75.8988 94.0342 76.3873 94.0342C77.0076 94.0342 77.3385 94.365 77.3385 94.9776Z" fill="#0B1C3E"/>
<path d="M80.1093 93.3105C79.7647 93.3105 79.6544 93.4277 79.6544 93.7516V94.1307H80.5918V94.8122H79.6544V97.527H78.6283V94.8122H78.0364V94.1652L78.6283 94.1307V93.6137C78.6283 92.9796 78.9247 92.5669 79.744 92.5669C79.9922 92.5669 80.5436 92.5807 80.8468 92.6359L80.7512 93.3105H80.1093Z" fill="#0B1C3E"/>
<path d="M82.0332 92.629C82.2331 92.629 82.3296 92.7323 82.3296 92.9253V93.2975C82.3296 93.4966 82.2331 93.5931 82.0332 93.5931H81.5783C81.3784 93.5931 81.2819 93.4966 81.2819 93.2975V92.9253C81.2819 92.7323 81.3784 92.629 81.5783 92.629H82.0332ZM81.3026 94.1307H82.3158V97.527H81.3026V94.1307Z" fill="#0B1C3E"/>
<path d="M86.5944 97.5262H85.788L85.713 97.0239C85.4373 97.3409 85.01 97.6089 84.4103 97.6089C83.5427 97.6089 83.205 96.9549 83.205 95.7979C83.205 94.44 83.653 94.0342 84.5068 94.0342C84.9066 94.0342 85.2994 94.1238 85.6087 94.3366C85.5889 94.11 85.5743 93.8757 85.5743 93.6275V92.7048H86.5944V97.5262ZM84.817 96.7688C85.1202 96.7688 85.2857 96.6792 85.5743 96.4931V94.9225C85.327 94.8536 85.134 94.7915 84.8514 94.7915C84.4172 94.7915 84.2518 94.9363 84.2518 95.791C84.2518 96.6034 84.4172 96.7688 84.817 96.7688Z" fill="#0B1C3E"/>
<path d="M90.6136 96.7206L90.7093 97.3547C90.3104 97.5477 89.7107 97.6089 89.2282 97.6089C87.9402 97.6089 87.4586 97.0859 87.4586 95.8323C87.4586 94.4891 87.954 94.0342 89.1869 94.0342C90.3448 94.0342 90.792 94.4409 90.7989 95.2189C90.7989 95.8392 90.5034 96.1692 89.7659 96.1692H88.5398C88.6088 96.6861 88.8293 96.7964 89.3454 96.7964C89.6556 96.7964 90.1519 96.7688 90.6136 96.7206ZM88.5192 95.5566H89.4833C89.759 95.5566 89.8003 95.3981 89.8003 95.2051C89.8003 94.888 89.6625 94.7777 89.2213 94.7777C88.7122 94.7708 88.5467 94.9156 88.5192 95.5566Z" fill="#0B1C3E"/>
<path d="M94.9353 94.9776V97.5262H93.9221V95.2947C93.9221 94.9845 93.8394 94.8949 93.5921 94.8949C93.3087 94.8949 93.0468 94.9983 92.6401 95.2051L92.6479 97.5262H91.6286V94.1307H92.4557L92.5298 94.633C92.9985 94.2479 93.4956 94.0342 93.9842 94.0342C94.6036 94.0342 94.9353 94.365 94.9353 94.9776Z" fill="#0B1C3E"/>
<path d="M98.7469 94.2479L98.6367 94.8811C98.2645 94.8751 97.9207 94.8673 97.6657 94.8673C97.0522 94.8673 96.8454 95.0741 96.8454 95.8254C96.8454 96.5758 97.0522 96.7826 97.6657 96.7826C97.8785 96.7826 98.3127 96.7757 98.7056 96.7206L98.7952 97.3823C98.4299 97.5408 97.9405 97.6089 97.4796 97.6089C96.2329 97.6089 95.778 97.1341 95.778 95.8254C95.778 94.5098 96.2389 94.0342 97.4925 94.0342C97.8449 94.0342 98.3747 94.0824 98.7469 94.2479Z" fill="#0B1C3E"/>
<path d="M102.545 96.7206L102.64 97.3547C102.241 97.5477 101.642 97.6089 101.159 97.6089C99.8713 97.6089 99.3897 97.0859 99.3897 95.8323C99.3897 94.4891 99.8851 94.0342 101.118 94.0342C102.276 94.0342 102.724 94.4409 102.73 95.2189C102.73 95.8392 102.434 96.1692 101.697 96.1692H100.471C100.54 96.6861 100.76 96.7964 101.277 96.7964C101.587 96.7964 102.083 96.7688 102.545 96.7206ZM100.45 95.5566H101.414C101.69 95.5566 101.731 95.3981 101.731 95.2051C101.731 94.888 101.594 94.7777 101.152 94.7777C100.643 94.7708 100.478 94.9156 100.45 95.5566Z" fill="#0B1C3E"/>
<path d="M104.096 96.4862C104.358 96.4862 104.448 96.569 104.448 96.8378V97.278C104.448 97.8225 104.317 98.181 104.096 98.5394L103.676 98.4084C103.745 98.1189 103.773 97.8501 103.773 97.527C103.586 97.527 103.49 97.4099 103.484 97.21L103.49 96.8378C103.505 96.569 103.594 96.4862 103.855 96.4862H104.096Z" fill="#0B1C3E"/>
<path d="M110.229 92.8693L110.16 93.5862C109.761 93.5724 109.175 93.5655 108.672 93.5655C108.163 93.5655 107.984 93.5931 107.984 93.9997C107.984 94.3297 108.122 94.4193 108.479 94.5365L109.382 94.8467C110.14 95.1155 110.388 95.5488 110.388 96.245C110.388 97.3263 109.919 97.6158 108.624 97.6158C108.322 97.6158 107.722 97.5951 106.991 97.4366L107.053 96.6792C107.935 96.6999 108.322 96.7137 108.624 96.7137C109.175 96.7137 109.327 96.6379 109.327 96.2519C109.327 95.9141 109.196 95.8314 108.879 95.7281L107.922 95.3912C107.198 95.1293 106.936 94.7019 106.936 93.9997C106.936 92.9107 107.439 92.6832 108.665 92.6832C109.134 92.6832 109.698 92.7177 110.229 92.8693Z" fill="#0B1C3E"/>
<path d="M114.248 96.7206L114.344 97.3547C113.945 97.5477 113.345 97.6089 112.863 97.6089C111.575 97.6089 111.093 97.0859 111.093 95.8323C111.093 94.4891 111.589 94.0342 112.822 94.0342C113.98 94.0342 114.428 94.4409 114.434 95.2189C114.434 95.8392 114.138 96.1692 113.401 96.1692H112.175C112.244 96.6861 112.464 96.7964 112.98 96.7964C113.29 96.7964 113.787 96.7688 114.248 96.7206ZM112.154 95.5566H113.118C113.394 95.5566 113.435 95.3981 113.435 95.2051C113.435 94.888 113.297 94.7777 112.856 94.7777C112.347 94.7708 112.181 94.9156 112.154 95.5566Z" fill="#0B1C3E"/>
<path d="M118.088 94.2479L117.977 94.8811C117.605 94.8751 117.261 94.8673 117.006 94.8673C116.393 94.8673 116.186 95.0741 116.186 95.8254C116.186 96.5758 116.393 96.7826 117.006 96.7826C117.219 96.7826 117.653 96.7757 118.046 96.7206L118.136 97.3823C117.771 97.5408 117.281 97.6089 116.82 97.6089C115.574 97.6089 115.119 97.1341 115.119 95.8254C115.119 94.5098 115.58 94.0342 116.833 94.0342C117.185 94.0342 117.715 94.0824 118.088 94.2479Z" fill="#0B1C3E"/>
<path d="M122.146 97.527H121.341L121.265 97.0583C120.796 97.4374 120.349 97.6166 119.86 97.6166C119.226 97.6166 118.902 97.2996 118.902 96.6732V94.1307H119.921V96.363C119.915 96.6594 120.011 96.7619 120.286 96.7619C120.534 96.7619 120.776 96.6732 121.134 96.4802V94.1307H122.146V97.527Z" fill="#0B1C3E"/>
<path d="M125.489 94.9776H125.214C124.917 94.9776 124.636 95.0534 124.174 95.212V97.5262H123.155V94.1307H123.946L124.036 94.633C124.491 94.2479 124.972 94.0342 125.414 94.0342H125.593L125.489 94.9776Z" fill="#0B1C3E"/>
<path d="M129.211 96.7206L129.308 97.3547C128.908 97.5477 128.308 97.6089 127.826 97.6089C126.538 97.6089 126.056 97.0859 126.056 95.8323C126.056 94.4891 126.552 94.0342 127.785 94.0342C128.943 94.0342 129.39 94.4409 129.397 95.2189C129.397 95.8392 129.101 96.1692 128.364 96.1692H127.138C127.207 96.6861 127.427 96.7964 127.943 96.7964C128.253 96.7964 128.75 96.7688 129.211 96.7206ZM127.117 95.5566H128.082C128.357 95.5566 128.398 95.3981 128.398 95.2051C128.398 94.888 128.26 94.7777 127.819 94.7777C127.31 94.7708 127.144 94.9156 127.117 95.5566Z" fill="#0B1C3E"/>
<path d="M133.478 97.5262H132.671L132.596 97.0239C132.321 97.3409 131.893 97.6089 131.294 97.6089C130.426 97.6089 130.088 96.9549 130.088 95.7979C130.088 94.44 130.536 94.0342 131.39 94.0342C131.79 94.0342 132.183 94.1238 132.492 94.3366C132.472 94.11 132.458 93.8757 132.458 93.6275V92.7048H133.478V97.5262ZM131.7 96.7688C132.004 96.7688 132.169 96.6792 132.458 96.4931V94.9225C132.211 94.8536 132.018 94.7915 131.735 94.7915C131.301 94.7915 131.135 94.9363 131.135 95.791C131.135 96.6034 131.301 96.7688 131.7 96.7688Z" fill="#0B1C3E"/>
</g>
</svg>
